<mxfile host="app.diagrams.net" modified="2022-07-14T16:53:21.887Z" agent="5.0 (Windows)" etag="42EepwXHkiA2WALGwdz0" version="20.1.1" type="github">
  <diagram id="MzWI8Xbqk4ogClHRenAQ" name="Page-1">
    <mxGraphModel dx="273" dy="139" grid="1" gridSize="10" guides="1" tooltips="1" connect="1" arrows="1" fold="1" page="1" pageScale="1" pageWidth="850" pageHeight="1100" math="0" shadow="0">
      <root>
        <mxCell id="0" />
        <mxCell id="1" parent="0" />
        <mxCell id="j6rCjOf4KR4LdH4R0Cua-5" value="" style="shape=cube;whiteSpace=wrap;html=1;boundedLbl=1;backgroundOutline=0;darkOpacity=0.05;darkOpacity2=0.1;rotatable=0;cloneable=0;deletable=1;resizable=0;movable=0;recursiveResize=0;allowArrows=0;connectable=0;" vertex="1" parent="1">
          <mxGeometry x="40" y="160" width="740" height="480" as="geometry" />
        </mxCell>
        <mxCell id="j6rCjOf4KR4LdH4R0Cua-2" value="&lt;div align=&quot;center&quot;&gt;&lt;b&gt;World knowledge (Constant)&lt;br&gt;&lt;/b&gt;&lt;/div&gt;&lt;div align=&quot;left&quot;&gt;&lt;ul&gt;&lt;li&gt;Common DSL Tokens&lt;/li&gt;&lt;li&gt;&lt;font color=&quot;#808080&quot;&gt;Probable Py-to-DSL tree matches&lt;/font&gt;&lt;/li&gt;&lt;/ul&gt;&lt;/div&gt;" style="ellipse;shape=cloud;whiteSpace=wrap;html=1;align=center;fontFamily=Helvetica;" vertex="1" parent="1">
          <mxGeometry x="50" y="180" width="300" height="150" as="geometry" />
        </mxCell>
        <mxCell id="j6rCjOf4KR4LdH4R0Cua-3" value="&lt;div align=&quot;center&quot;&gt;&lt;b&gt;Problem knowledge (Dynamic)&lt;br&gt;&lt;/b&gt;&lt;/div&gt;&lt;div align=&quot;left&quot;&gt;&lt;ul&gt;&lt;li&gt;Encountered variables&lt;/li&gt;&lt;li&gt;Encountered object names&lt;/li&gt;&lt;/ul&gt;&lt;/div&gt;" style="ellipse;shape=cloud;whiteSpace=wrap;html=1;align=center;fontFamily=Helvetica;" vertex="1" parent="1">
          <mxGeometry x="50" y="290" width="300" height="150" as="geometry" />
        </mxCell>
        <mxCell id="j6rCjOf4KR4LdH4R0Cua-7" value="JACQUES" style="text;html=1;align=center;verticalAlign=middle;resizable=0;points=[];autosize=1;strokeColor=none;fillColor=none;fontStyle=1;horizontal=1;fontSize=20;labelBackgroundColor=default;shadow=0;rounded=0;fontFamily=Helvetica;" vertex="1" parent="1">
          <mxGeometry x="50" y="140" width="120" height="40" as="geometry" />
        </mxCell>
        <mxCell id="j6rCjOf4KR4LdH4R0Cua-39" value="" style="edgeStyle=orthogonalEdgeStyle;rounded=0;orthogonalLoop=1;jettySize=auto;html=1;fontFamily=Courier New;fontSize=12;strokeWidth=1;" edge="1" parent="1" source="j6rCjOf4KR4LdH4R0Cua-9" target="j6rCjOf4KR4LdH4R0Cua-38">
          <mxGeometry relative="1" as="geometry" />
        </mxCell>
        <mxCell id="j6rCjOf4KR4LdH4R0Cua-9" value="&lt;div style=&quot;font-size: 15px;&quot;&gt;Ruleset&lt;br style=&quot;font-size: 15px;&quot;&gt;&lt;/div&gt;" style="shape=cylinder3;whiteSpace=wrap;html=1;boundedLbl=1;backgroundOutline=1;size=15;rounded=0;shadow=0;labelBackgroundColor=default;fontSize=15;fontFamily=Helvetica;fontStyle=1" vertex="1" parent="1">
          <mxGeometry x="70" y="450" width="150" height="130" as="geometry" />
        </mxCell>
        <mxCell id="j6rCjOf4KR4LdH4R0Cua-10" value="DSL example" style="rounded=1;whiteSpace=wrap;html=1;shadow=0;labelBackgroundColor=default;fontSize=15;fontFamily=Helvetica;fontStyle=1" vertex="1" parent="1">
          <mxGeometry x="360" y="40" width="150" height="60" as="geometry" />
        </mxCell>
        <mxCell id="j6rCjOf4KR4LdH4R0Cua-17" style="edgeStyle=orthogonalEdgeStyle;shape=link;rounded=0;orthogonalLoop=1;jettySize=auto;html=1;entryX=1;entryY=0.5;entryDx=0;entryDy=0;fontSize=20;strokeWidth=1;" edge="1" parent="1" source="j6rCjOf4KR4LdH4R0Cua-11" target="j6rCjOf4KR4LdH4R0Cua-10">
          <mxGeometry relative="1" as="geometry" />
        </mxCell>
        <mxCell id="j6rCjOf4KR4LdH4R0Cua-11" value="Code example" style="rounded=1;whiteSpace=wrap;html=1;shadow=0;labelBackgroundColor=default;fontSize=15;fontFamily=Helvetica;fontStyle=1" vertex="1" parent="1">
          <mxGeometry x="520" y="40" width="150" height="60" as="geometry" />
        </mxCell>
        <mxCell id="j6rCjOf4KR4LdH4R0Cua-12" value="&amp;lt;&lt;font style=&quot;font-size: 12px;&quot;&gt;string&amp;gt;&lt;/font&gt;" style="endArrow=classic;html=1;rounded=0;fontSize=12;exitX=0.44;exitY=1.033;exitDx=0;exitDy=0;exitPerimeter=0;entryX=0.5;entryY=0;entryDx=0;entryDy=0;verticalAlign=middle;fontFamily=Courier New;fontStyle=0" edge="1" parent="1" source="j6rCjOf4KR4LdH4R0Cua-10" target="j6rCjOf4KR4LdH4R0Cua-19">
          <mxGeometry x="-0.0253" width="50" height="50" relative="1" as="geometry">
            <mxPoint x="470" y="320" as="sourcePoint" />
            <mxPoint x="426.29999999999995" y="240.15999999999997" as="targetPoint" />
            <mxPoint as="offset" />
          </mxGeometry>
        </mxCell>
        <mxCell id="j6rCjOf4KR4LdH4R0Cua-13" value="" style="endArrow=classic;html=1;rounded=0;fontSize=20;exitX=0.44;exitY=1.033;exitDx=0;exitDy=0;exitPerimeter=0;entryX=0.5;entryY=0;entryDx=0;entryDy=0;" edge="1" parent="1" target="j6rCjOf4KR4LdH4R0Cua-20">
          <mxGeometry width="50" height="50" relative="1" as="geometry">
            <mxPoint x="594.5" y="100.00000000000001" as="sourcePoint" />
            <mxPoint x="594.8" y="238.17999999999998" as="targetPoint" />
          </mxGeometry>
        </mxCell>
        <mxCell id="j6rCjOf4KR4LdH4R0Cua-23" value="&amp;lt;string&amp;gt;" style="edgeLabel;html=1;align=center;verticalAlign=middle;resizable=0;points=[];fontSize=12;fontFamily=Courier New;fontStyle=0" vertex="1" connectable="0" parent="j6rCjOf4KR4LdH4R0Cua-13">
          <mxGeometry x="-0.2415" y="1" relative="1" as="geometry">
            <mxPoint x="-1" y="10" as="offset" />
          </mxGeometry>
        </mxCell>
        <mxCell id="j6rCjOf4KR4LdH4R0Cua-28" value="" style="edgeStyle=orthogonalEdgeStyle;rounded=0;orthogonalLoop=1;jettySize=auto;html=1;fontFamily=Courier New;fontSize=12;strokeWidth=1;entryX=0.151;entryY=-0.002;entryDx=0;entryDy=0;entryPerimeter=0;" edge="1" parent="1" source="j6rCjOf4KR4LdH4R0Cua-19" target="j6rCjOf4KR4LdH4R0Cua-35">
          <mxGeometry relative="1" as="geometry">
            <mxPoint x="426" y="330" as="targetPoint" />
          </mxGeometry>
        </mxCell>
        <mxCell id="j6rCjOf4KR4LdH4R0Cua-33" value="&amp;lt;AST of DSL&amp;gt;" style="edgeLabel;html=1;align=center;verticalAlign=middle;resizable=0;points=[];fontSize=12;fontFamily=Courier New;fontStyle=0" vertex="1" connectable="0" parent="j6rCjOf4KR4LdH4R0Cua-28">
          <mxGeometry x="-0.3268" y="2" relative="1" as="geometry">
            <mxPoint as="offset" />
          </mxGeometry>
        </mxCell>
        <mxCell id="j6rCjOf4KR4LdH4R0Cua-19" value="DSL Parser" style="rhombus;whiteSpace=wrap;html=1;rounded=0;shadow=0;labelBackgroundColor=default;fontSize=15;fontFamily=Helvetica;fontStyle=1" vertex="1" parent="1">
          <mxGeometry x="368" y="180" width="115" height="50" as="geometry" />
        </mxCell>
        <mxCell id="j6rCjOf4KR4LdH4R0Cua-27" value="" style="edgeStyle=orthogonalEdgeStyle;rounded=0;orthogonalLoop=1;jettySize=auto;html=1;fontFamily=Courier New;fontSize=12;strokeWidth=1;entryX=0.592;entryY=-0.007;entryDx=0;entryDy=0;entryPerimeter=0;" edge="1" parent="1" source="j6rCjOf4KR4LdH4R0Cua-20" target="j6rCjOf4KR4LdH4R0Cua-35">
          <mxGeometry relative="1" as="geometry">
            <mxPoint x="595" y="300" as="targetPoint" />
          </mxGeometry>
        </mxCell>
        <mxCell id="j6rCjOf4KR4LdH4R0Cua-34" value="&amp;lt;AST of Code&amp;gt;" style="edgeLabel;html=1;align=center;verticalAlign=middle;resizable=0;points=[];fontSize=12;fontFamily=Courier New;fontStyle=0" vertex="1" connectable="0" parent="j6rCjOf4KR4LdH4R0Cua-27">
          <mxGeometry x="-0.3431" y="2" relative="1" as="geometry">
            <mxPoint as="offset" />
          </mxGeometry>
        </mxCell>
        <mxCell id="j6rCjOf4KR4LdH4R0Cua-20" value="Code Parser" style="rhombus;whiteSpace=wrap;html=1;rounded=0;shadow=0;labelBackgroundColor=default;fontSize=15;fontFamily=Helvetica;fontStyle=1" vertex="1" parent="1">
          <mxGeometry x="537.5" y="180" width="115" height="50" as="geometry" />
        </mxCell>
        <mxCell id="j6rCjOf4KR4LdH4R0Cua-32" value="" style="elbow=horizontal;endArrow=none;html=1;rounded=0;fontFamily=Courier New;fontSize=12;strokeWidth=1;dashed=1;exitX=0;exitY=0.5;exitDx=0;exitDy=0;entryX=0.667;entryY=0.533;entryDx=0;entryDy=0;entryPerimeter=0;edgeStyle=entityRelationEdgeStyle;startArrow=classic;startFill=1;endFill=0;" edge="1" parent="1" source="j6rCjOf4KR4LdH4R0Cua-19" target="j6rCjOf4KR4LdH4R0Cua-2">
          <mxGeometry width="50" height="50" relative="1" as="geometry">
            <mxPoint x="490" y="420" as="sourcePoint" />
            <mxPoint x="560" y="310" as="targetPoint" />
          </mxGeometry>
        </mxCell>
        <mxCell id="j6rCjOf4KR4LdH4R0Cua-48" style="rounded=0;orthogonalLoop=1;jettySize=auto;html=1;entryX=0.44;entryY=-0.003;entryDx=0;entryDy=0;entryPerimeter=0;fontFamily=Courier New;fontSize=12;strokeWidth=1;" edge="1" parent="1" target="j6rCjOf4KR4LdH4R0Cua-47">
          <mxGeometry relative="1" as="geometry">
            <mxPoint x="610" y="450" as="sourcePoint" />
          </mxGeometry>
        </mxCell>
        <mxCell id="j6rCjOf4KR4LdH4R0Cua-35" value="Tree Matcher" style="swimlane;rounded=0;shadow=0;labelBackgroundColor=default;fontFamily=Helvetica;fontSize=15;fontStyle=1" vertex="1" parent="1">
          <mxGeometry x="370" y="290" width="380" height="160" as="geometry">
            <mxRectangle x="368" y="330" width="120" height="30" as="alternateBounds" />
          </mxGeometry>
        </mxCell>
        <mxCell id="j6rCjOf4KR4LdH4R0Cua-44" value="&lt;div align=&quot;left&quot;&gt;&lt;ol&gt;&lt;li&gt;Split into subtrees using known rules&lt;/li&gt;&lt;li&gt;Tree matching algorithm&lt;/li&gt;&lt;/ol&gt;&lt;/div&gt;" style="text;html=1;strokeColor=none;fillColor=none;align=left;verticalAlign=middle;whiteSpace=wrap;rounded=0;shadow=0;labelBackgroundColor=default;fontFamily=Helvetica;fontSize=12;labelPosition=center;verticalLabelPosition=middle;" vertex="1" parent="j6rCjOf4KR4LdH4R0Cua-35">
          <mxGeometry x="22" y="40" width="298" height="80" as="geometry" />
        </mxCell>
        <mxCell id="j6rCjOf4KR4LdH4R0Cua-41" value="" style="edgeStyle=orthogonalEdgeStyle;rounded=0;orthogonalLoop=1;jettySize=auto;html=1;fontFamily=Courier New;fontSize=12;strokeWidth=1;" edge="1" parent="1" source="j6rCjOf4KR4LdH4R0Cua-38" target="j6rCjOf4KR4LdH4R0Cua-40">
          <mxGeometry relative="1" as="geometry" />
        </mxCell>
        <mxCell id="j6rCjOf4KR4LdH4R0Cua-38" value="export" style="rhombus;whiteSpace=wrap;html=1;rounded=0;shadow=0;labelBackgroundColor=default;fontFamily=Courier New;fontSize=12;" vertex="1" parent="1">
          <mxGeometry x="105" y="610" width="80" height="40" as="geometry" />
        </mxCell>
        <mxCell id="j6rCjOf4KR4LdH4R0Cua-40" value="" style="shape=waypoint;sketch=0;size=6;pointerEvents=1;points=[];fillColor=default;resizable=0;rotatable=0;perimeter=centerPerimeter;snapToPoint=1;fontFamily=Courier New;rounded=0;shadow=0;labelBackgroundColor=default;" vertex="1" parent="1">
          <mxGeometry x="125" y="650" width="40" height="40" as="geometry" />
        </mxCell>
        <mxCell id="j6rCjOf4KR4LdH4R0Cua-46" value="" style="endArrow=none;html=1;rounded=0;fontFamily=Courier New;fontSize=12;strokeWidth=1;entryX=1;entryY=0;entryDx=0;entryDy=27.5;entryPerimeter=0;dashed=1;exitX=0;exitY=0.75;exitDx=0;exitDy=0;edgeStyle=entityRelationEdgeStyle;startArrow=classic;startFill=1;endFill=0;" edge="1" parent="1" source="j6rCjOf4KR4LdH4R0Cua-35" target="j6rCjOf4KR4LdH4R0Cua-9">
          <mxGeometry width="50" height="50" relative="1" as="geometry">
            <mxPoint x="370" y="505" as="sourcePoint" />
            <mxPoint x="560" y="390" as="targetPoint" />
          </mxGeometry>
        </mxCell>
        <mxCell id="j6rCjOf4KR4LdH4R0Cua-47" value="&lt;div style=&quot;font-size: 15px;&quot; align=&quot;center&quot;&gt;&lt;font style=&quot;font-size: 15px;&quot;&gt;Theory (Dynamic)&lt;/font&gt;&lt;/div&gt;&lt;div style=&quot;font-size: 15px;&quot; align=&quot;center&quot;&gt;&lt;font style=&quot;font-size: 15px;&quot;&gt;&lt;span style=&quot;font-weight: normal;&quot;&gt;&lt;font style=&quot;font-size: 12px;&quot; face=&quot;Courier New&quot;&gt;Matrix: DSL✕Code Confidence&lt;/font&gt;&lt;/span&gt;&lt;br style=&quot;font-size: 15px;&quot;&gt;&lt;/font&gt;&lt;/div&gt;" style="shape=cylinder3;whiteSpace=wrap;html=1;boundedLbl=1;backgroundOutline=1;size=15;rounded=0;shadow=0;labelBackgroundColor=default;fontFamily=Helvetica;fontSize=15;align=center;fontStyle=1" vertex="1" parent="1">
          <mxGeometry x="500" y="480" width="250" height="120" as="geometry" />
        </mxCell>
        <mxCell id="j6rCjOf4KR4LdH4R0Cua-49" style="rounded=0;orthogonalLoop=1;jettySize=auto;html=1;fontFamily=Courier New;fontSize=12;strokeWidth=1;exitX=0.56;exitY=0;exitDx=0;exitDy=0;exitPerimeter=0;" edge="1" parent="1" source="j6rCjOf4KR4LdH4R0Cua-47">
          <mxGeometry relative="1" as="geometry">
            <mxPoint x="635" y="460" as="sourcePoint" />
            <mxPoint x="640" y="450" as="targetPoint" />
          </mxGeometry>
        </mxCell>
        <mxCell id="j6rCjOf4KR4LdH4R0Cua-56" style="edgeStyle=none;rounded=0;orthogonalLoop=1;jettySize=auto;html=1;entryX=0.5;entryY=0;entryDx=0;entryDy=0;entryPerimeter=0;fontFamily=Courier New;fontSize=12;startArrow=classic;startFill=1;endArrow=classic;endFill=1;strokeWidth=1;" edge="1" parent="1" source="j6rCjOf4KR4LdH4R0Cua-52" target="j6rCjOf4KR4LdH4R0Cua-53">
          <mxGeometry relative="1" as="geometry" />
        </mxCell>
        <mxCell id="j6rCjOf4KR4LdH4R0Cua-52" value="Enquirer" style="rounded=0;whiteSpace=wrap;html=1;shadow=0;labelBackgroundColor=default;fontFamily=Helvetica;fontSize=15;fontStyle=1" vertex="1" parent="1">
          <mxGeometry x="305" y="530" width="120" height="60" as="geometry" />
        </mxCell>
        <mxCell id="j6rCjOf4KR4LdH4R0Cua-53" value="Expert" style="shape=umlActor;verticalLabelPosition=bottom;verticalAlign=top;html=1;outlineConnect=0;rounded=0;shadow=0;labelBackgroundColor=default;fontFamily=Helvetica;fontSize=14;fontStyle=1" vertex="1" parent="1">
          <mxGeometry x="350" y="680" width="30" height="60" as="geometry" />
        </mxCell>
        <mxCell id="j6rCjOf4KR4LdH4R0Cua-57" value="" style="endArrow=classic;startArrow=classic;html=1;rounded=0;fontFamily=Courier New;fontSize=12;strokeWidth=1;exitX=1;exitY=0.5;exitDx=0;exitDy=0;" edge="1" parent="1" source="j6rCjOf4KR4LdH4R0Cua-52">
          <mxGeometry width="50" height="50" relative="1" as="geometry">
            <mxPoint x="460" y="570" as="sourcePoint" />
            <mxPoint x="500" y="560" as="targetPoint" />
          </mxGeometry>
        </mxCell>
        <mxCell id="j6rCjOf4KR4LdH4R0Cua-58" value="" style="endArrow=classic;html=1;rounded=0;fontFamily=Courier New;fontSize=12;strokeWidth=1;exitX=0;exitY=0.25;exitDx=0;exitDy=0;" edge="1" parent="1" source="j6rCjOf4KR4LdH4R0Cua-52">
          <mxGeometry width="50" height="50" relative="1" as="geometry">
            <mxPoint x="460" y="570" as="sourcePoint" />
            <mxPoint x="220" y="545" as="targetPoint" />
          </mxGeometry>
        </mxCell>
        <mxCell id="j6rCjOf4KR4LdH4R0Cua-59" value="&lt;div style=&quot;font-size: 12px;&quot;&gt;commit&lt;/div&gt;" style="edgeLabel;html=1;align=center;verticalAlign=middle;resizable=0;points=[];fontSize=12;fontFamily=Courier New;fontStyle=0" vertex="1" connectable="0" parent="j6rCjOf4KR4LdH4R0Cua-58">
          <mxGeometry x="-0.2672" y="-2" relative="1" as="geometry">
            <mxPoint x="-9" y="1" as="offset" />
          </mxGeometry>
        </mxCell>
        <mxCell id="j6rCjOf4KR4LdH4R0Cua-60" value="" style="endArrow=classic;html=1;rounded=0;fontFamily=Courier New;fontSize=12;strokeWidth=1;entryX=0.998;entryY=0.467;entryDx=0;entryDy=0;entryPerimeter=0;" edge="1" parent="1" target="j6rCjOf4KR4LdH4R0Cua-9">
          <mxGeometry width="50" height="50" relative="1" as="geometry">
            <mxPoint x="500" y="510" as="sourcePoint" />
            <mxPoint x="230" y="555" as="targetPoint" />
          </mxGeometry>
        </mxCell>
        <mxCell id="j6rCjOf4KR4LdH4R0Cua-61" value="&lt;div style=&quot;font-size: 12px;&quot;&gt;commit&lt;/div&gt;" style="edgeLabel;html=1;align=center;verticalAlign=middle;resizable=0;points=[];fontSize=12;fontFamily=Courier New;fontStyle=0" vertex="1" connectable="0" parent="j6rCjOf4KR4LdH4R0Cua-60">
          <mxGeometry x="-0.2672" y="-2" relative="1" as="geometry">
            <mxPoint x="-9" y="1" as="offset" />
          </mxGeometry>
        </mxCell>
        <mxCell id="j6rCjOf4KR4LdH4R0Cua-62" value="&lt;b style=&quot;font-size: 12px;&quot;&gt;&lt;font style=&quot;font-size: 12px;&quot; face=&quot;Courier New&quot;&gt;&amp;lt;AST of ...&amp;gt;&lt;/font&gt;&lt;/b&gt; both inherit from custom baseclass &lt;b style=&quot;font-size: 12px;&quot;&gt;&lt;font style=&quot;font-size: 12px;&quot; face=&quot;Courier New&quot;&gt;&amp;lt;AST&amp;gt;&lt;/font&gt;&lt;/b&gt;, the symmetric and interfaces will ease tree matching, and make JACQUES easily implementable with other DSLs/Libraries etc." style="text;html=1;strokeColor=none;fillColor=none;align=left;verticalAlign=middle;whiteSpace=wrap;rounded=0;shadow=0;labelBackgroundColor=default;fontFamily=Helvetica;fontSize=12;fontColor=#000000;" vertex="1" parent="1">
          <mxGeometry x="40" y="20" width="290" height="120" as="geometry" />
        </mxCell>
        <mxCell id="j6rCjOf4KR4LdH4R0Cua-63" value="" style="shape=image;html=1;verticalAlign=top;verticalLabelPosition=bottom;labelBackgroundColor=#ffffff;imageAspect=0;aspect=fixed;image=https://cdn4.iconfinder.com/data/icons/ionicons/512/icon-ios7-glasses-outline-128.png;rounded=0;shadow=0;fontFamily=Helvetica;fontSize=12;fontColor=#000000;" vertex="1" parent="1">
          <mxGeometry x="358" y="680" width="13" height="13" as="geometry" />
        </mxCell>
      </root>
    </mxGraphModel>
  </diagram>
</mxfile>
